<svg width="62" height="56" viewBox="0 0 62 56" fill="none" xmlns="http://www.w3.org/2000/svg">
<g clip-path="url(#clip0_4034_1768)">
<path d="M41.5546 55.3017C46.4469 55.3017 50.4129 51.3357 50.4129 46.4434C50.4129 41.551 46.4469 37.585 41.5546 37.585C38.3057 37.585 35.4653 39.334 33.9236 41.9418L33.7195 42.185C32.0899 44.1273 29.0999 44.1219 27.4774 42.1736L27.2144 41.858C25.6618 39.2967 22.8477 37.585 19.6338 37.585C14.7414 37.585 10.7754 41.551 10.7754 46.4434C10.7754 51.3357 14.7414 55.3017 19.6338 55.3017C22.8046 55.3017 25.5863 53.6357 27.1513 51.1313L27.5056 50.7152C29.1259 48.8117 32.0637 48.8064 33.691 50.7039L33.9844 51.0459C35.5391 53.5978 38.3478 55.3017 41.5546 55.3017Z" fill="#EDEDED"/>
<path d="M27.572 13.3633C30.0182 9.12634 28.5665 3.70865 24.3296 1.26249C20.0927 -1.18367 14.675 0.267991 12.2288 4.50488C10.6043 7.31871 10.6989 10.6534 12.1868 13.2925L12.2953 13.5903C13.1626 15.9727 11.6628 18.5594 9.16424 18.9904L8.75835 19.0605C5.76416 19.1247 2.87517 20.7059 1.26835 23.489C-1.17782 27.7259 0.273859 33.1436 4.51074 35.5898C8.74762 38.0359 14.1654 36.5843 16.6115 32.3474C18.1966 29.6019 18.145 26.3605 16.7594 23.7532L16.5756 23.2367C15.7373 20.8817 17.2015 18.3349 19.6585 17.8744L20.1013 17.7914C23.0886 17.7208 25.9686 16.1404 27.572 13.3633Z" fill="#EDEDED"/>
<path d="M44.6878 32.3473C47.134 36.5842 52.5517 38.0359 56.7886 35.5897C61.0255 33.1436 62.4771 27.7258 60.031 23.489C58.4064 20.6752 55.4713 19.0899 52.4419 19.0588L52.1297 19.0037C49.6329 18.5637 48.1426 15.9715 49.0185 13.5922L49.1609 13.2053C50.6023 10.5802 50.6772 7.28782 49.0705 4.50488C46.6243 0.267994 41.2066 -1.18368 36.9697 1.26249C32.7329 3.70866 31.2811 9.1264 33.7274 13.3633C35.3126 16.1089 38.1457 17.6849 41.0966 17.7884L41.6355 17.8874C44.0941 18.3389 45.5676 20.8804 44.7379 23.2384L44.5886 23.6626C43.1557 26.2852 43.0843 29.5699 44.6878 32.3473Z" fill="#EDEDED"/>
</g>
<defs>
<clipPath id="clip0_4034_1768">
<rect width="61.2988" height="55.3103" fill="white"/>
</clipPath>
</defs>
</svg>
